<mxfile host="app.diagrams.net" modified="2023-11-22T22:57:17.038Z" agent="Mozilla/5.0 (Macintosh; Intel Mac OS X 10_15_7) AppleWebKit/537.36 (KHTML, like Gecko) Chrome/119.0.0.0 Safari/537.36" etag="8EWJwfGqHdP9kkzkhNZ3" version="22.1.3" type="github">
  <diagram name="Page-1" id="03018318-947c-dd8e-b7a3-06fadd420f32">
    <mxGraphModel dx="1193" dy="633" grid="1" gridSize="10" guides="1" tooltips="1" connect="1" arrows="1" fold="1" page="1" pageScale="1" pageWidth="1100" pageHeight="850" background="none" math="0" shadow="0">
      <root>
        <mxCell id="0" />
        <mxCell id="1" parent="0" />
        <mxCell id="ZoQ4Q6qBY-CvNYGnSl1H-53" style="edgeStyle=orthogonalEdgeStyle;rounded=0;orthogonalLoop=1;jettySize=auto;html=1;exitX=0.5;exitY=1;exitDx=0;exitDy=0;" edge="1" parent="1" source="677b7b8949515195-2">
          <mxGeometry relative="1" as="geometry">
            <mxPoint x="170" y="29.999999999999886" as="targetPoint" />
          </mxGeometry>
        </mxCell>
        <mxCell id="677b7b8949515195-2" value="LOGO" style="whiteSpace=wrap;html=1;rounded=0;shadow=0;labelBackgroundColor=none;strokeWidth=0;fontFamily=Verdana;fontSize=28;align=center;comic=1;" parent="1" vertex="1">
          <mxGeometry x="150" y="30" width="100" height="20" as="geometry" />
        </mxCell>
        <mxCell id="677b7b8949515195-4" value="Credit Card Churning Customers Analysis" style="text;html=1;points=[];align=left;verticalAlign=top;spacingTop=-4;fontSize=14;fontFamily=Verdana" parent="1" vertex="1">
          <mxGeometry x="290" y="30" width="60" height="20" as="geometry" />
        </mxCell>
        <mxCell id="677b7b8949515195-11" value="Select range for months" style="text;html=1;points=[];align=left;verticalAlign=top;spacingTop=-4;fontSize=14;fontFamily=Verdana" parent="1" vertex="1">
          <mxGeometry x="40" y="330" width="60" height="20" as="geometry" />
        </mxCell>
        <mxCell id="677b7b8949515195-27" value="Choose your filter" style="text;html=1;points=[];align=left;verticalAlign=top;spacingTop=-4;fontSize=14;fontFamily=Verdana" parent="1" vertex="1">
          <mxGeometry x="40" y="120" width="170" height="20" as="geometry" />
        </mxCell>
        <mxCell id="677b7b8949515195-28" value="Select a column to plot" style="text;html=1;points=[];align=left;verticalAlign=top;spacingTop=-4;fontSize=14;fontFamily=Verdana" parent="1" vertex="1">
          <mxGeometry x="40" y="150" width="170" height="20" as="geometry" />
        </mxCell>
        <mxCell id="677b7b8949515195-29" value="Select Gender" style="text;html=1;points=[];align=left;verticalAlign=top;spacingTop=-4;fontSize=14;fontFamily=Verdana" parent="1" vertex="1">
          <mxGeometry x="40" y="180" width="170" height="20" as="geometry" />
        </mxCell>
        <mxCell id="677b7b8949515195-30" value="Select Education" style="text;html=1;points=[];align=left;verticalAlign=top;spacingTop=-4;fontSize=14;fontFamily=Verdana" parent="1" vertex="1">
          <mxGeometry x="40" y="210" width="170" height="20" as="geometry" />
        </mxCell>
        <mxCell id="677b7b8949515195-31" value="Select CardCat" style="text;html=1;points=[];align=left;verticalAlign=top;spacingTop=-4;fontSize=14;fontFamily=Verdana" parent="1" vertex="1">
          <mxGeometry x="40" y="300" width="170" height="20" as="geometry" />
        </mxCell>
        <mxCell id="677b7b8949515195-39" value="Select Marital status" style="text;html=1;points=[];align=left;verticalAlign=top;spacingTop=-4;fontSize=14;fontFamily=Verdana" parent="1" vertex="1">
          <mxGeometry x="37" y="240" width="170" height="20" as="geometry" />
        </mxCell>
        <mxCell id="677b7b8949515195-40" value="Select Income" style="text;html=1;points=[];align=left;verticalAlign=top;spacingTop=-4;fontSize=14;fontFamily=Verdana" parent="1" vertex="1">
          <mxGeometry x="40" y="270" width="170" height="20" as="geometry" />
        </mxCell>
        <mxCell id="ZoQ4Q6qBY-CvNYGnSl1H-1" value="" style="dashed=0;verticalLabelPosition=bottom;verticalAlign=top;align=center;shape=mxgraph.gmdl.slider2;barPos=100;strokeColor=#3F51B5;opacity=100;strokeWidth=2;fillColor=#3F51B5;handleSize=20;shadow=0;html=1;" vertex="1" parent="1">
          <mxGeometry x="40" y="355" width="130" height="20" as="geometry" />
        </mxCell>
        <mxCell id="ZoQ4Q6qBY-CvNYGnSl1H-6" value="Select range for Age" style="text;html=1;points=[];align=left;verticalAlign=top;spacingTop=-4;fontSize=14;fontFamily=Verdana" vertex="1" parent="1">
          <mxGeometry x="40" y="380" width="60" height="20" as="geometry" />
        </mxCell>
        <mxCell id="ZoQ4Q6qBY-CvNYGnSl1H-7" value="" style="dashed=0;verticalLabelPosition=bottom;verticalAlign=top;align=center;shape=mxgraph.gmdl.slider2;barPos=100;strokeColor=#3F51B5;opacity=100;strokeWidth=2;fillColor=#3F51B5;handleSize=20;shadow=0;html=1;" vertex="1" parent="1">
          <mxGeometry x="40" y="405" width="130" height="20" as="geometry" />
        </mxCell>
        <mxCell id="ZoQ4Q6qBY-CvNYGnSl1H-10" value="Select range for Dependent" style="text;html=1;points=[];align=left;verticalAlign=top;spacingTop=-4;fontSize=14;fontFamily=Verdana" vertex="1" parent="1">
          <mxGeometry x="40" y="440" width="60" height="20" as="geometry" />
        </mxCell>
        <mxCell id="ZoQ4Q6qBY-CvNYGnSl1H-11" value="" style="dashed=0;verticalLabelPosition=bottom;verticalAlign=top;align=center;shape=mxgraph.gmdl.slider2;barPos=100;strokeColor=#3F51B5;opacity=100;strokeWidth=2;fillColor=#3F51B5;handleSize=20;shadow=0;html=1;" vertex="1" parent="1">
          <mxGeometry x="40" y="470" width="130" height="20" as="geometry" />
        </mxCell>
        <mxCell id="ZoQ4Q6qBY-CvNYGnSl1H-12" value="Select range for PeriodOfRelationship" style="text;html=1;points=[];align=left;verticalAlign=top;spacingTop=-4;fontSize=14;fontFamily=Verdana" vertex="1" parent="1">
          <mxGeometry x="37" y="500" width="60" height="20" as="geometry" />
        </mxCell>
        <mxCell id="ZoQ4Q6qBY-CvNYGnSl1H-13" value="" style="dashed=0;verticalLabelPosition=bottom;verticalAlign=top;align=center;shape=mxgraph.gmdl.slider2;barPos=100;strokeColor=#3F51B5;opacity=100;strokeWidth=2;fillColor=#3F51B5;handleSize=20;shadow=0;html=1;" vertex="1" parent="1">
          <mxGeometry x="37" y="530" width="130" height="20" as="geometry" />
        </mxCell>
        <mxCell id="ZoQ4Q6qBY-CvNYGnSl1H-15" value="Select range for TotalNumberProducts" style="text;html=1;points=[];align=left;verticalAlign=top;spacingTop=-4;fontSize=14;fontFamily=Verdana" vertex="1" parent="1">
          <mxGeometry x="37" y="560" width="60" height="20" as="geometry" />
        </mxCell>
        <mxCell id="ZoQ4Q6qBY-CvNYGnSl1H-16" value="" style="dashed=0;verticalLabelPosition=bottom;verticalAlign=top;align=center;shape=mxgraph.gmdl.slider2;barPos=100;strokeColor=#3F51B5;opacity=100;strokeWidth=2;fillColor=#3F51B5;handleSize=20;shadow=0;html=1;" vertex="1" parent="1">
          <mxGeometry x="37" y="590" width="130" height="20" as="geometry" />
        </mxCell>
        <mxCell id="ZoQ4Q6qBY-CvNYGnSl1H-17" value="Select range for ContactsCount" style="text;html=1;points=[];align=left;verticalAlign=top;spacingTop=-4;fontSize=14;fontFamily=Verdana" vertex="1" parent="1">
          <mxGeometry x="37" y="620" width="60" height="20" as="geometry" />
        </mxCell>
        <mxCell id="ZoQ4Q6qBY-CvNYGnSl1H-18" value="" style="dashed=0;verticalLabelPosition=bottom;verticalAlign=top;align=center;shape=mxgraph.gmdl.slider2;barPos=100;strokeColor=#3F51B5;opacity=100;strokeWidth=2;fillColor=#3F51B5;handleSize=20;shadow=0;html=1;" vertex="1" parent="1">
          <mxGeometry x="40" y="653" width="130" height="20" as="geometry" />
        </mxCell>
        <mxCell id="ZoQ4Q6qBY-CvNYGnSl1H-19" value="Select range for CreditLimit" style="text;html=1;points=[];align=left;verticalAlign=top;spacingTop=-4;fontSize=14;fontFamily=Verdana" vertex="1" parent="1">
          <mxGeometry x="37" y="680" width="60" height="20" as="geometry" />
        </mxCell>
        <mxCell id="ZoQ4Q6qBY-CvNYGnSl1H-20" value="" style="dashed=0;verticalLabelPosition=bottom;verticalAlign=top;align=center;shape=mxgraph.gmdl.slider2;barPos=100;strokeColor=#3F51B5;opacity=100;strokeWidth=2;fillColor=#3F51B5;handleSize=20;shadow=0;html=1;" vertex="1" parent="1">
          <mxGeometry x="40" y="830" width="130" height="20" as="geometry" />
        </mxCell>
        <mxCell id="ZoQ4Q6qBY-CvNYGnSl1H-23" value="Select range for TotalBal" style="text;html=1;points=[];align=left;verticalAlign=top;spacingTop=-4;fontSize=14;fontFamily=Verdana" vertex="1" parent="1">
          <mxGeometry x="40" y="740" width="60" height="20" as="geometry" />
        </mxCell>
        <mxCell id="ZoQ4Q6qBY-CvNYGnSl1H-24" value="" style="dashed=0;verticalLabelPosition=bottom;verticalAlign=top;align=center;shape=mxgraph.gmdl.slider2;barPos=100;strokeColor=#3F51B5;opacity=100;strokeWidth=2;fillColor=#3F51B5;handleSize=20;shadow=0;html=1;" vertex="1" parent="1">
          <mxGeometry x="40" y="770" width="130" height="20" as="geometry" />
        </mxCell>
        <mxCell id="ZoQ4Q6qBY-CvNYGnSl1H-27" value="" style="edgeStyle=orthogonalEdgeStyle;rounded=0;orthogonalLoop=1;jettySize=auto;html=1;" edge="1" parent="1" source="ZoQ4Q6qBY-CvNYGnSl1H-25" target="ZoQ4Q6qBY-CvNYGnSl1H-24">
          <mxGeometry relative="1" as="geometry" />
        </mxCell>
        <mxCell id="ZoQ4Q6qBY-CvNYGnSl1H-25" value="Select range for AvgOpenToBuy" style="text;html=1;points=[];align=left;verticalAlign=top;spacingTop=-4;fontSize=14;fontFamily=Verdana" vertex="1" parent="1">
          <mxGeometry x="37" y="800" width="60" height="20" as="geometry" />
        </mxCell>
        <mxCell id="ZoQ4Q6qBY-CvNYGnSl1H-26" value="" style="dashed=0;verticalLabelPosition=bottom;verticalAlign=top;align=center;shape=mxgraph.gmdl.slider2;barPos=100;strokeColor=#3F51B5;opacity=100;strokeWidth=2;fillColor=#3F51B5;handleSize=20;shadow=0;html=1;" vertex="1" parent="1">
          <mxGeometry x="37" y="710" width="130" height="20" as="geometry" />
        </mxCell>
        <mxCell id="ZoQ4Q6qBY-CvNYGnSl1H-32" value="" style="edgeStyle=orthogonalEdgeStyle;rounded=0;orthogonalLoop=1;jettySize=auto;html=1;" edge="1" parent="1" source="ZoQ4Q6qBY-CvNYGnSl1H-28" target="ZoQ4Q6qBY-CvNYGnSl1H-29">
          <mxGeometry relative="1" as="geometry" />
        </mxCell>
        <mxCell id="ZoQ4Q6qBY-CvNYGnSl1H-28" value="Select range for ChangeTransAmountQ4Q1" style="text;html=1;points=[];align=left;verticalAlign=top;spacingTop=-4;fontSize=13;fontFamily=Verdana" vertex="1" parent="1">
          <mxGeometry x="40" y="860" width="60" height="20" as="geometry" />
        </mxCell>
        <mxCell id="ZoQ4Q6qBY-CvNYGnSl1H-29" value="" style="dashed=0;verticalLabelPosition=bottom;verticalAlign=top;align=center;shape=mxgraph.gmdl.slider2;barPos=100;strokeColor=#3F51B5;opacity=100;strokeWidth=2;fillColor=#3F51B5;handleSize=20;shadow=0;html=1;" vertex="1" parent="1">
          <mxGeometry x="40" y="890" width="130" height="20" as="geometry" />
        </mxCell>
        <mxCell id="ZoQ4Q6qBY-CvNYGnSl1H-35" value="" style="edgeStyle=orthogonalEdgeStyle;rounded=0;orthogonalLoop=1;jettySize=auto;html=1;" edge="1" parent="1" source="ZoQ4Q6qBY-CvNYGnSl1H-33" target="ZoQ4Q6qBY-CvNYGnSl1H-34">
          <mxGeometry relative="1" as="geometry" />
        </mxCell>
        <mxCell id="ZoQ4Q6qBY-CvNYGnSl1H-38" value="" style="edgeStyle=orthogonalEdgeStyle;rounded=0;orthogonalLoop=1;jettySize=auto;html=1;" edge="1" parent="1" source="ZoQ4Q6qBY-CvNYGnSl1H-33" target="ZoQ4Q6qBY-CvNYGnSl1H-34">
          <mxGeometry relative="1" as="geometry" />
        </mxCell>
        <mxCell id="ZoQ4Q6qBY-CvNYGnSl1H-33" value="Select range for TotalTransAmt" style="text;html=1;points=[];align=left;verticalAlign=top;spacingTop=-4;fontSize=14;fontFamily=Verdana" vertex="1" parent="1">
          <mxGeometry x="40" y="930" width="60" height="20" as="geometry" />
        </mxCell>
        <mxCell id="ZoQ4Q6qBY-CvNYGnSl1H-34" value="" style="dashed=0;verticalLabelPosition=bottom;verticalAlign=top;align=center;shape=mxgraph.gmdl.slider2;barPos=100;strokeColor=#3F51B5;opacity=100;strokeWidth=2;fillColor=#3F51B5;handleSize=20;shadow=0;html=1;" vertex="1" parent="1">
          <mxGeometry x="40" y="960" width="130" height="20" as="geometry" />
        </mxCell>
        <mxCell id="ZoQ4Q6qBY-CvNYGnSl1H-43" value="" style="edgeStyle=orthogonalEdgeStyle;rounded=0;orthogonalLoop=1;jettySize=auto;html=1;" edge="1" parent="1" source="ZoQ4Q6qBY-CvNYGnSl1H-39" target="ZoQ4Q6qBY-CvNYGnSl1H-40">
          <mxGeometry relative="1" as="geometry" />
        </mxCell>
        <mxCell id="ZoQ4Q6qBY-CvNYGnSl1H-39" value="Select range for TotalTransCountQ4Q1" style="text;html=1;points=[];align=left;verticalAlign=top;spacingTop=-4;fontSize=14;fontFamily=Verdana" vertex="1" parent="1">
          <mxGeometry x="40" y="1000" width="60" height="20" as="geometry" />
        </mxCell>
        <mxCell id="ZoQ4Q6qBY-CvNYGnSl1H-40" value="" style="dashed=0;verticalLabelPosition=bottom;verticalAlign=top;align=center;shape=mxgraph.gmdl.slider2;barPos=100;strokeColor=#3F51B5;opacity=100;strokeWidth=2;fillColor=#3F51B5;handleSize=20;shadow=0;html=1;" vertex="1" parent="1">
          <mxGeometry x="40" y="1030" width="130" height="20" as="geometry" />
        </mxCell>
        <mxCell id="ZoQ4Q6qBY-CvNYGnSl1H-48" value="Select range for ChangeTransCountQ4Q1" style="text;html=1;points=[];align=left;verticalAlign=top;spacingTop=-4;fontSize=14;fontFamily=Verdana" vertex="1" parent="1">
          <mxGeometry x="37" y="1060" width="60" height="20" as="geometry" />
        </mxCell>
        <mxCell id="ZoQ4Q6qBY-CvNYGnSl1H-49" value="" style="dashed=0;verticalLabelPosition=bottom;verticalAlign=top;align=center;shape=mxgraph.gmdl.slider2;barPos=100;strokeColor=#3F51B5;opacity=100;strokeWidth=2;fillColor=#3F51B5;handleSize=20;shadow=0;html=1;" vertex="1" parent="1">
          <mxGeometry x="37" y="1160" width="130" height="20" as="geometry" />
        </mxCell>
        <mxCell id="ZoQ4Q6qBY-CvNYGnSl1H-51" value="Select range for UtilRatio" style="text;html=1;points=[];align=left;verticalAlign=top;spacingTop=-4;fontSize=14;fontFamily=Verdana" vertex="1" parent="1">
          <mxGeometry x="37" y="1130" width="60" height="20" as="geometry" />
        </mxCell>
        <mxCell id="ZoQ4Q6qBY-CvNYGnSl1H-52" value="" style="dashed=0;verticalLabelPosition=bottom;verticalAlign=top;align=center;shape=mxgraph.gmdl.slider2;barPos=100;strokeColor=#3F51B5;opacity=100;strokeWidth=2;fillColor=#3F51B5;handleSize=20;shadow=0;html=1;" vertex="1" parent="1">
          <mxGeometry x="37" y="1100" width="130" height="20" as="geometry" />
        </mxCell>
        <mxCell id="ZoQ4Q6qBY-CvNYGnSl1H-54" value="" style="rounded=0;whiteSpace=wrap;html=1;" vertex="1" parent="1">
          <mxGeometry x="310" y="80" width="580" height="40" as="geometry" />
        </mxCell>
        <mxCell id="ZoQ4Q6qBY-CvNYGnSl1H-55" value="Drag and drop file here" style="text;html=1;points=[];align=left;verticalAlign=top;spacingTop=-4;fontSize=14;fontFamily=Verdana" vertex="1" parent="1">
          <mxGeometry x="320" y="90" width="170" height="20" as="geometry" />
        </mxCell>
        <mxCell id="ZoQ4Q6qBY-CvNYGnSl1H-56" value="" style="html=1;verticalLabelPosition=bottom;align=center;labelBackgroundColor=#ffffff;verticalAlign=top;strokeWidth=2;strokeColor=#0080F0;shadow=0;dashed=0;shape=mxgraph.ios7.icons.share;" vertex="1" parent="1">
          <mxGeometry x="860" y="85.75" width="21" height="28.5" as="geometry" />
        </mxCell>
        <mxCell id="ZoQ4Q6qBY-CvNYGnSl1H-57" value="" style="rounded=0;whiteSpace=wrap;html=1;" vertex="1" parent="1">
          <mxGeometry x="320" y="160" width="400" height="250" as="geometry" />
        </mxCell>
        <mxCell id="ZoQ4Q6qBY-CvNYGnSl1H-58" value="&lt;font size=&quot;1&quot; style=&quot;&quot;&gt;&lt;b style=&quot;font-size: 11px;&quot;&gt;Customize Your Analysis: Select Variables to Compare Results&lt;/b&gt;&lt;/font&gt;" style="text;html=1;points=[];align=left;verticalAlign=top;spacingTop=-4;fontSize=14;fontFamily=Verdana" vertex="1" parent="1">
          <mxGeometry x="320" y="160" width="380" height="20" as="geometry" />
        </mxCell>
        <mxCell id="ZoQ4Q6qBY-CvNYGnSl1H-59" value="" style="shape=image;html=1;verticalAlign=top;verticalLabelPosition=bottom;labelBackgroundColor=#ffffff;imageAspect=0;aspect=fixed;image=https://cdn1.iconfinder.com/data/icons/unicons-line-vol-3/24/graph-bar-128.png" vertex="1" parent="1">
          <mxGeometry x="446" y="216" width="128" height="128" as="geometry" />
        </mxCell>
        <mxCell id="ZoQ4Q6qBY-CvNYGnSl1H-60" value="" style="rounded=0;whiteSpace=wrap;html=1;" vertex="1" parent="1">
          <mxGeometry x="750" y="160" width="400" height="250" as="geometry" />
        </mxCell>
        <mxCell id="ZoQ4Q6qBY-CvNYGnSl1H-61" value="&lt;font style=&quot;font-size: 12px;&quot;&gt;&lt;b&gt;Correlation Matrix of Credit Card Customer Attributes&lt;/b&gt;&lt;/font&gt;" style="text;html=1;points=[];align=left;verticalAlign=top;spacingTop=-4;fontSize=14;fontFamily=Verdana" vertex="1" parent="1">
          <mxGeometry x="750" y="160" width="380" height="20" as="geometry" />
        </mxCell>
        <mxCell id="ZoQ4Q6qBY-CvNYGnSl1H-79" value="" style="rounded=0;whiteSpace=wrap;html=1;" vertex="1" parent="1">
          <mxGeometry x="320" y="460" width="400" height="250" as="geometry" />
        </mxCell>
        <mxCell id="ZoQ4Q6qBY-CvNYGnSl1H-80" value="&lt;b&gt;&lt;font style=&quot;font-size: 12px;&quot;&gt;Customer relationship analysis&lt;/font&gt;&lt;/b&gt;" style="text;html=1;points=[];align=left;verticalAlign=top;spacingTop=-4;fontSize=14;fontFamily=Verdana" vertex="1" parent="1">
          <mxGeometry x="320" y="460" width="380" height="20" as="geometry" />
        </mxCell>
        <mxCell id="ZoQ4Q6qBY-CvNYGnSl1H-81" value="" style="shape=image;html=1;verticalAlign=top;verticalLabelPosition=bottom;labelBackgroundColor=#ffffff;imageAspect=0;aspect=fixed;image=https://cdn1.iconfinder.com/data/icons/unicons-line-vol-3/24/graph-bar-128.png" vertex="1" parent="1">
          <mxGeometry x="446" y="516" width="128" height="128" as="geometry" />
        </mxCell>
        <mxCell id="ZoQ4Q6qBY-CvNYGnSl1H-83" value="" style="shape=image;html=1;verticalAlign=top;verticalLabelPosition=bottom;labelBackgroundColor=#ffffff;imageAspect=0;aspect=fixed;image=https://cdn1.iconfinder.com/data/icons/unicons-line-vol-3/24/graph-bar-128.png" vertex="1" parent="1">
          <mxGeometry x="886" y="210" width="128" height="128" as="geometry" />
        </mxCell>
        <mxCell id="ZoQ4Q6qBY-CvNYGnSl1H-84" value="&lt;b&gt;&lt;u&gt;Barchart&lt;/u&gt;&lt;/b&gt;" style="text;html=1;points=[];align=left;verticalAlign=top;spacingTop=-4;fontSize=14;fontFamily=Verdana" vertex="1" parent="1">
          <mxGeometry x="330" y="380" width="170" height="20" as="geometry" />
        </mxCell>
        <mxCell id="ZoQ4Q6qBY-CvNYGnSl1H-85" value="&lt;b&gt;&lt;u&gt;Heatmap&lt;/u&gt;&lt;/b&gt;" style="text;html=1;points=[];align=left;verticalAlign=top;spacingTop=-4;fontSize=14;fontFamily=Verdana" vertex="1" parent="1">
          <mxGeometry x="770" y="380" width="170" height="20" as="geometry" />
        </mxCell>
        <mxCell id="ZoQ4Q6qBY-CvNYGnSl1H-86" value="&lt;b&gt;&lt;u&gt;Scatter plot&lt;/u&gt;&lt;/b&gt;" style="text;html=1;points=[];align=left;verticalAlign=top;spacingTop=-4;fontSize=14;fontFamily=Verdana" vertex="1" parent="1">
          <mxGeometry x="328" y="683" width="170" height="20" as="geometry" />
        </mxCell>
        <mxCell id="ZoQ4Q6qBY-CvNYGnSl1H-87" value="" style="rounded=0;whiteSpace=wrap;html=1;" vertex="1" parent="1">
          <mxGeometry x="750" y="460" width="400" height="250" as="geometry" />
        </mxCell>
        <mxCell id="ZoQ4Q6qBY-CvNYGnSl1H-88" value="&lt;font style=&quot;font-size: 11px;&quot;&gt;&lt;b&gt;Stacked Distribution of Churned and Existing Customers by Card Category&lt;/b&gt;&lt;/font&gt;" style="text;html=1;points=[];align=left;verticalAlign=top;spacingTop=-4;fontSize=14;fontFamily=Verdana" vertex="1" parent="1">
          <mxGeometry x="750" y="460" width="380" height="20" as="geometry" />
        </mxCell>
        <mxCell id="ZoQ4Q6qBY-CvNYGnSl1H-89" value="" style="shape=image;html=1;verticalAlign=top;verticalLabelPosition=bottom;labelBackgroundColor=#ffffff;imageAspect=0;aspect=fixed;image=https://cdn1.iconfinder.com/data/icons/unicons-line-vol-3/24/graph-bar-128.png" vertex="1" parent="1">
          <mxGeometry x="876" y="516" width="128" height="128" as="geometry" />
        </mxCell>
        <mxCell id="ZoQ4Q6qBY-CvNYGnSl1H-90" value="&lt;b&gt;&lt;u&gt;Bar chart&lt;/u&gt;&lt;/b&gt;" style="text;html=1;points=[];align=left;verticalAlign=top;spacingTop=-4;fontSize=14;fontFamily=Verdana" vertex="1" parent="1">
          <mxGeometry x="758" y="683" width="170" height="20" as="geometry" />
        </mxCell>
        <mxCell id="ZoQ4Q6qBY-CvNYGnSl1H-91" value="" style="rounded=0;whiteSpace=wrap;html=1;" vertex="1" parent="1">
          <mxGeometry x="320" y="780" width="400" height="250" as="geometry" />
        </mxCell>
        <mxCell id="ZoQ4Q6qBY-CvNYGnSl1H-92" value="&lt;font style=&quot;font-size: 12px;&quot;&gt;&lt;b&gt;Random Forest Classification - Prediction of Churned Customers&lt;/b&gt;&lt;/font&gt;" style="text;html=1;points=[];align=left;verticalAlign=top;spacingTop=-4;fontSize=14;fontFamily=Verdana" vertex="1" parent="1">
          <mxGeometry x="320" y="780" width="380" height="20" as="geometry" />
        </mxCell>
        <mxCell id="ZoQ4Q6qBY-CvNYGnSl1H-93" value="" style="shape=image;html=1;verticalAlign=top;verticalLabelPosition=bottom;labelBackgroundColor=#ffffff;imageAspect=0;aspect=fixed;image=https://cdn1.iconfinder.com/data/icons/unicons-line-vol-3/24/graph-bar-128.png" vertex="1" parent="1">
          <mxGeometry x="446" y="836" width="128" height="128" as="geometry" />
        </mxCell>
        <mxCell id="ZoQ4Q6qBY-CvNYGnSl1H-94" value="&lt;b&gt;&lt;u&gt;Confusion matrix&lt;/u&gt;&lt;/b&gt;" style="text;html=1;points=[];align=left;verticalAlign=top;spacingTop=-4;fontSize=14;fontFamily=Verdana" vertex="1" parent="1">
          <mxGeometry x="328" y="1003" width="170" height="20" as="geometry" />
        </mxCell>
        <mxCell id="ZoQ4Q6qBY-CvNYGnSl1H-95" value="" style="rounded=0;whiteSpace=wrap;html=1;" vertex="1" parent="1">
          <mxGeometry x="758" y="780" width="400" height="250" as="geometry" />
        </mxCell>
        <mxCell id="ZoQ4Q6qBY-CvNYGnSl1H-96" value="&lt;font style=&quot;font-size: 12px;&quot;&gt;&lt;b&gt;Random Forest Classification Prediction Accuracy Score&lt;/b&gt;&lt;/font&gt;" style="text;html=1;points=[];align=left;verticalAlign=top;spacingTop=-4;fontSize=14;fontFamily=Verdana" vertex="1" parent="1">
          <mxGeometry x="758" y="780" width="380" height="20" as="geometry" />
        </mxCell>
        <mxCell id="ZoQ4Q6qBY-CvNYGnSl1H-98" value="&lt;b&gt;&lt;u&gt;Confusion matrix accuracy score&lt;/u&gt;&lt;/b&gt;" style="text;html=1;points=[];align=center;verticalAlign=top;spacingTop=-4;fontSize=14;fontFamily=Verdana" vertex="1" parent="1">
          <mxGeometry x="758" y="895" width="392" height="20" as="geometry" />
        </mxCell>
        <mxCell id="ZoQ4Q6qBY-CvNYGnSl1H-99" value="" style="rounded=0;whiteSpace=wrap;html=1;" vertex="1" parent="1">
          <mxGeometry x="320" y="1140" width="190" height="40" as="geometry" />
        </mxCell>
        <mxCell id="ZoQ4Q6qBY-CvNYGnSl1H-100" value="Download" style="text;html=1;points=[];align=left;verticalAlign=top;spacingTop=-4;fontSize=14;fontFamily=Verdana" vertex="1" parent="1">
          <mxGeometry x="328" y="1150" width="60" height="20" as="geometry" />
        </mxCell>
        <mxCell id="ZoQ4Q6qBY-CvNYGnSl1H-101" value="" style="sketch=0;outlineConnect=0;fontColor=#232F3E;gradientColor=none;fillColor=#8C4FFF;strokeColor=none;dashed=0;verticalLabelPosition=bottom;verticalAlign=top;align=center;html=1;fontSize=12;fontStyle=0;aspect=fixed;pointerEvents=1;shape=mxgraph.aws4.download_distribution;" vertex="1" parent="1">
          <mxGeometry x="462" y="1146" width="28" height="28" as="geometry" />
        </mxCell>
      </root>
    </mxGraphModel>
  </diagram>
</mxfile>
